<?xml version="1.0" standalone="yes"?>

<svg version="1.1" viewBox="0.0 0.0 416.43569553805776 700.3280839895014" fill="none" stroke="none" stroke-linecap="square" stroke-miterlimit="10" xmlns="http://www.w3.org/2000/svg" xmlns:xlink="http://www.w3.org/1999/xlink"><clipPath id="p.0"><path d="m0 0l416.4357 0l0 700.32806l-416.4357 0l0 -700.32806z" clip-rule="nonzero"></path></clipPath><g clip-path="url(#p.0)"><path fill="#000000" fill-opacity="0.0" d="m0 0l416.4357 0l0 700.32806l-416.4357 0z" fill-rule="nonzero"></path><path fill="#000000" fill-opacity="0.0" d="m7.0249343 503.45145l0 0c0 -104.31659 90.45963 -188.8819 202.04724 -188.8819l0 0c111.587616 0 202.04724 84.56531 202.04724 188.8819l0 0c0 104.31656 -90.459625 188.88187 -202.04724 188.88187l0 0c-111.58761 0 -202.04724 -84.56531 -202.04724 -188.88187z" fill-rule="nonzero"></path><path stroke="#000000" stroke-width="8.0" stroke-linejoin="round" stroke-linecap="butt" d="m7.0249343 503.45145l0 0c0 -104.31659 90.45963 -188.8819 202.04724 -188.8819l0 0c111.587616 0 202.04724 84.56531 202.04724 188.8819l0 0c0 104.31656 -90.459625 188.88187 -202.04724 188.88187l0 0c-111.58761 0 -202.04724 -84.56531 -202.04724 -188.88187z" fill-rule="nonzero"></path><path fill="#000000" fill-opacity="0.0" d="m209.07217 314.56955l0 377.76376" fill-rule="nonzero"></path><path stroke="#000000" stroke-width="1.0" stroke-linejoin="round" stroke-linecap="butt" d="m209.07217 314.56955l0 377.76376" fill-rule="nonzero"></path><path fill="#000000" fill-opacity="0.0" d="m66.2032 637.0111l285.7323 -267.11813" fill-rule="nonzero"></path><path stroke="#000000" stroke-width="1.0" stroke-linejoin="round" stroke-linecap="butt" d="m66.2032 637.0111l285.7323 -267.11813" fill-rule="nonzero"></path><path fill="#000000" fill-opacity="0.0" d="m66.2032 369.89178l285.7323 267.1181" fill-rule="nonzero"></path><path stroke="#000000" stroke-width="1.0" stroke-linejoin="round" stroke-linecap="butt" d="m66.2032 369.89178l285.7323 267.1181" fill-rule="nonzero"></path><path fill="#000000" fill-opacity="0.0" d="m411.11942 503.45145l-404.09448 0" fill-rule="nonzero"></path><path stroke="#000000" stroke-width="1.0" stroke-linejoin="round" stroke-linecap="butt" d="m411.11942 503.45145l-404.09448 0" fill-rule="nonzero"></path><path fill="#000000" d="m203.15092 125.68767l11.842514 0l0 377.7638l-11.842514 0z" fill-rule="nonzero"></path><path stroke="#000000" stroke-width="1.0" stroke-linejoin="round" stroke-linecap="butt" d="m203.15092 125.68767l11.842514 0l0 377.7638l-11.842514 0z" fill-rule="nonzero"></path><path fill="#6d9eeb" d="m257.11508 151.34183l-144.78741 -28.960632l144.78741 -28.960632z" fill-rule="nonzero"></path><path stroke="#000000" stroke-width="1.0" stroke-linejoin="round" stroke-linecap="butt" d="m257.11508 151.34183l-144.78741 -28.960632l144.78741 -28.960632z" fill-rule="nonzero"></path><path fill="#ffffff" d="m205.57874 149.5538l0 0c0 -15.994507 14.129471 -28.960625 31.559052 -28.960625l0 0c17.429596 0 31.559052 12.966118 31.559052 28.960625l0 0c0 15.994522 -14.129456 28.960632 -31.559052 28.960632l0 0c-17.42958 0 -31.559052 -12.96611 -31.559052 -28.960632z" fill-rule="nonzero"></path><path stroke="#000000" stroke-width="1.0" stroke-linejoin="round" stroke-linecap="butt" d="m205.57874 149.5538l0 0c0 -15.994507 14.129471 -28.960625 31.559052 -28.960625l0 0c17.429596 0 31.559052 12.966118 31.559052 28.960625l0 0c0 15.994522 -14.129456 28.960632 -31.559052 28.960632l0 0c-17.42958 0 -31.559052 -12.96611 -31.559052 -28.960632z" fill-rule="nonzero"></path><path fill="#000000" d="m231.61023 149.5538l0 0c0 -3.000595 2.4747772 -5.433075 5.5275726 -5.433075l0 0c1.4659882 0 2.8719482 0.5724182 3.9085693 1.5913239c1.0366211 1.0188904 1.618988 2.4008179 1.618988 3.841751l0 0c0 3.0006104 -2.4747772 5.433075 -5.5275574 5.433075l0 0c-3.0527954 0 -5.5275726 -2.4324646 -5.5275726 -5.433075z" fill-rule="nonzero"></path><path stroke="#000000" stroke-width="1.0" stroke-linejoin="round" stroke-linecap="butt" d="m231.61023 149.5538l0 0c0 -3.000595 2.4747772 -5.433075 5.5275726 -5.433075l0 0c1.4659882 0 2.8719482 0.5724182 3.9085693 1.5913239c1.0366211 1.0188904 1.618988 2.4008179 1.618988 3.841751l0 0c0 3.0006104 -2.4747772 5.433075 -5.5275574 5.433075l0 0c-3.0527954 0 -5.5275726 -2.4324646 -5.5275726 -5.433075z" fill-rule="nonzero"></path><path fill="#ffffff" d="m159.87534 149.5538l0 0c0 -15.994507 14.129456 -28.960625 31.559052 -28.960625l0 0c17.42958 0 31.559052 12.966118 31.559052 28.960625l0 0c0 15.994522 -14.129471 28.960632 -31.559052 28.960632l0 0c-17.429596 0 -31.559052 -12.96611 -31.559052 -28.960632z" fill-rule="nonzero"></path><path stroke="#000000" stroke-width="1.0" stroke-linejoin="round" stroke-linecap="butt" d="m159.87534 149.5538l0 0c0 -15.994507 14.129456 -28.960625 31.559052 -28.960625l0 0c17.42958 0 31.559052 12.966118 31.559052 28.960625l0 0c0 15.994522 -14.129471 28.960632 -31.559052 28.960632l0 0c-17.429596 0 -31.559052 -12.96611 -31.559052 -28.960632z" fill-rule="nonzero"></path><path fill="#000000" d="m185.90683 149.5538l0 0c0 -3.000595 2.474762 -5.433075 5.5275574 -5.433075l0 0c1.4660034 0 2.8719482 0.5724182 3.9085693 1.5913239c1.0366211 1.0188904 1.618988 2.4008179 1.618988 3.841751l0 0c0 3.0006104 -2.4747772 5.433075 -5.5275574 5.433075l0 0c-3.0527954 0 -5.5275574 -2.4324646 -5.5275574 -5.433075z" fill-rule="nonzero"></path><path stroke="#000000" stroke-width="1.0" stroke-linejoin="round" stroke-linecap="butt" d="m185.90683 149.5538l0 0c0 -3.000595 2.474762 -5.433075 5.5275574 -5.433075l0 0c1.4660034 0 2.8719482 0.5724182 3.9085693 1.5913239c1.0366211 1.0188904 1.618988 2.4008179 1.618988 3.841751l0 0c0 3.0006104 -2.4747772 5.433075 -5.5275574 5.433075l0 0c-3.0527954 0 -5.5275574 -2.4324646 -5.5275574 -5.433075z" fill-rule="nonzero"></path><path fill="#6aa84f" d="m77.41037 463.92688l255.40158 68.188965l-2.0787659 7.748047l-255.40155 -68.188995z" fill-rule="nonzero"></path><path stroke="#000000" stroke-width="1.0" stroke-linejoin="round" stroke-linecap="butt" d="m77.41037 463.92688l255.40158 68.188965l-2.0787659 7.748047l-255.40155 -68.188995z" fill-rule="nonzero"></path><path fill="#6aa84f" d="m56.137794 456.33334l50.992126 0l0 14.015747l-50.992126 0z" fill-rule="nonzero"></path><path stroke="#000000" stroke-width="1.0" stroke-linejoin="round" stroke-linecap="butt" d="m56.137794 456.33334l50.992126 0l0 14.015747l-50.992126 0z" fill-rule="nonzero"></path><path fill="#6aa84f" d="m300.94357 525.8478l50.992126 0l0 14.015747l-50.992126 0z" fill-rule="nonzero"></path><path stroke="#000000" stroke-width="1.0" stroke-linejoin="round" stroke-linecap="butt" d="m300.94357 525.8478l50.992126 0l0 14.015747l-50.992126 0z" fill-rule="nonzero"></path><path fill="#cc0000" d="m341.1378 440.83728l0 0c0 -8.558258 7.163452 -15.496063 16.0 -15.496063l0 0c4.243469 0 8.313141 1.6325989 11.313721 4.5386963c3.0005798 2.906067 4.6862793 6.847534 4.6862793 10.957367l0 0c0 8.558228 -7.1634216 15.496063 -16.0 15.496063l0 0c-8.836548 0 -16.0 -6.9378357 -16.0 -15.496063z" fill-rule="nonzero"></path><path stroke="#000000" stroke-width="1.0" stroke-linejoin="round" stroke-linecap="butt" d="m341.1378 440.83728l0 0c0 -8.558258 7.163452 -15.496063 16.0 -15.496063l0 0c4.243469 0 8.313141 1.6325989 11.313721 4.5386963c3.0005798 2.906067 4.6862793 6.847534 4.6862793 10.957367l0 0c0 8.558228 -7.1634216 15.496063 -16.0 15.496063l0 0c-8.836548 0 -16.0 -6.9378357 -16.0 -15.496063z" fill-rule="nonzero"></path><path fill="#cc0000" d="m252.28215 225.82152l0 0c0 -8.558228 7.163437 -15.496063 16.000015 -15.496063l0 0c4.2434387 0 8.31311 1.6326141 11.31369 4.5386963c3.0005798 2.9060822 4.68631 6.8475647 4.68631 10.957367l0 0c0 8.558243 -7.163452 15.496063 -16.0 15.496063l0 0c-8.836578 0 -16.000015 -6.9378204 -16.000015 -15.496063z" fill-rule="nonzero"></path><path stroke="#000000" stroke-width="1.0" stroke-linejoin="round" stroke-linecap="butt" d="m252.28215 225.82152l0 0c0 -8.558228 7.163437 -15.496063 16.000015 -15.496063l0 0c4.2434387 0 8.31311 1.6326141 11.31369 4.5386963c3.0005798 2.9060822 4.68631 6.8475647 4.68631 10.957367l0 0c0 8.558243 -7.163452 15.496063 -16.0 15.496063l0 0c-8.836578 0 -16.000015 -6.9378204 -16.000015 -15.496063z" fill-rule="nonzero"></path><path fill="#cc0000" d="m41.728348 332.33334l0 0c0 -8.558258 7.1634445 -15.496063 16.0 -15.496063l0 0c4.2434616 0 8.313126 1.6325989 11.313705 4.5386963c3.0005875 2.906067 4.6862946 6.847534 4.6862946 10.957367l0 0c0 8.558228 -7.1634445 15.496063 -16.0 15.496063l0 0c-8.8365555 0 -16.0 -6.9378357 -16.0 -15.496063z" fill-rule="nonzero"></path><path stroke="#000000" stroke-width="1.0" stroke-linejoin="round" stroke-linecap="butt" d="m41.728348 332.33334l0 0c0 -8.558258 7.1634445 -15.496063 16.0 -15.496063l0 0c4.2434616 0 8.313126 1.6325989 11.313705 4.5386963c3.0005875 2.906067 4.6862946 6.847534 4.6862946 10.957367l0 0c0 8.558228 -7.1634445 15.496063 -16.0 15.496063l0 0c-8.8365555 0 -16.0 -6.9378357 -16.0 -15.496063z" fill-rule="nonzero"></path><path fill="#cc0000" d="m138.18767 77.92388l0 0c0 -8.558235 7.163437 -15.496059 16.0 -15.496059l0 0c4.243454 0 8.313126 1.632618 11.313705 4.5386925c3.0005798 2.9060745 4.6862946 6.847557 4.6862946 10.957367l0 0c0 8.558243 -7.163452 15.496063 -16.0 15.496063l0 0c-8.836563 0 -16.0 -6.9378204 -16.0 -15.496063z" fill-rule="nonzero"></path><path stroke="#000000" stroke-width="1.0" stroke-linejoin="round" stroke-linecap="butt" d="m138.18767 77.92388l0 0c0 -8.558235 7.163437 -15.496059 16.0 -15.496059l0 0c4.243454 0 8.313126 1.632618 11.313705 4.5386925c3.0005798 2.9060745 4.6862946 6.847557 4.6862946 10.957367l0 0c0 8.558243 -7.163452 15.496063 -16.0 15.496063l0 0c-8.836563 0 -16.0 -6.9378204 -16.0 -15.496063z" fill-rule="nonzero"></path><path fill="#cc0000" d="m243.68636 18.939632l0 0c0 -8.558239 7.163437 -15.496063 15.999985 -15.496063l0 0c4.243469 0 8.313141 1.632616 11.313721 4.5386915c3.0005798 2.906076 4.6862793 6.8475604 4.6862793 10.957371l0 0c0 8.558239 -7.1634216 15.496063 -16.0 15.496063l0 0c-8.836548 0 -15.999985 -6.9378242 -15.999985 -15.496063z" fill-rule="nonzero"></path><path stroke="#000000" stroke-width="1.0" stroke-linejoin="round" stroke-linecap="butt" d="m243.68636 18.939632l0 0c0 -8.558239 7.163437 -15.496063 15.999985 -15.496063l0 0c4.243469 0 8.313141 1.632616 11.313721 4.5386915c3.0005798 2.906076 4.6862793 6.8475604 4.6862793 10.957371l0 0c0 8.558239 -7.1634216 15.496063 -16.0 15.496063l0 0c-8.836548 0 -15.999985 -6.9378242 -15.999985 -15.496063z" fill-rule="nonzero"></path></g></svg>

